<?xml version="1.0" encoding="UTF-8" standalone="no"?>
<svg xmlns="http://www.w3.org/2000/svg" width="240" height="240" viewBox="0 0 240 240">
  <!-- 背景和主要形状 -->
  <circle cx="120" cy="120" r="110" fill="#f5f5f5" stroke="#0d6efd" stroke-width="6"/>
  
  <!-- 中心图案 - 三重保护层的同心圆 -->
  <circle cx="120" cy="120" r="80" fill="none" stroke="#0d6efd" stroke-width="4" stroke-dasharray="10,5"/>
  <circle cx="120" cy="120" r="60" fill="none" stroke="#0d6efd" stroke-width="3"/>
  <circle cx="120" cy="120" r="40" fill="#e6f0ff"/>
  
  <!-- 钥匙图案 -->
  <g transform="translate(85, 90) scale(0.15)">
    <path d="M512 176.001C512 273.203 433.202 352 336 352c-11.22 0-22.19-1.062-32.827-3.069l-24.012 27.014C266.647 389.667 246.693 399 224 399h-40v40c0 13.255-10.745 24-24 24h-40v40c0 13.255-10.745 24-24 24H24c-13.255 0-24-10.745-24-24v-78.059c0-6.365 2.529-12.47 7.029-16.971l161.802-161.802C163.108 213.814 160 195.271 160 176 160 78.798 238.797.001 335.999 0 433.488-.001 512 78.511 512 176.001zM336 128c0 26.51 21.49 48 48 48s48-21.49 48-48-21.49-48-48-48-48 21.49-48 48z" fill="#0d6efd"/>
  </g>
  
  <!-- Kerberos文字 -->
  <text x="120" y="180" font-family="Arial, sans-serif" font-size="24" font-weight="bold" text-anchor="middle" fill="#0d6efd">KERBEROS</text>
  
  <!-- 安全符号 - 3把钥匙 -->
  <g transform="translate(120, 120) rotate(120) translate(-15, -70) scale(0.08)">
    <path d="M512 176.001C512 273.203 433.202 352 336 352c-11.22 0-22.19-1.062-32.827-3.069l-24.012 27.014C266.647 389.667 246.693 399 224 399h-40v40c0 13.255-10.745 24-24 24h-40v40c0 13.255-10.745 24-24 24H24c-13.255 0-24-10.745-24-24v-78.059c0-6.365 2.529-12.47 7.029-16.971l161.802-161.802C163.108 213.814 160 195.271 160 176 160 78.798 238.797.001 335.999 0 433.488-.001 512 78.511 512 176.001zM336 128c0 26.51 21.49 48 48 48s48-21.49 48-48-21.49-48-48-48-48 21.49-48 48z" fill="#0d6efd"/>
  </g>
  
  <g transform="translate(120, 120) rotate(240) translate(-15, -70) scale(0.08)">
    <path d="M512 176.001C512 273.203 433.202 352 336 352c-11.22 0-22.19-1.062-32.827-3.069l-24.012 27.014C266.647 389.667 246.693 399 224 399h-40v40c0 13.255-10.745 24-24 24h-40v40c0 13.255-10.745 24-24 24H24c-13.255 0-24-10.745-24-24v-78.059c0-6.365 2.529-12.47 7.029-16.971l161.802-161.802C163.108 213.814 160 195.271 160 176 160 78.798 238.797.001 335.999 0 433.488-.001 512 78.511 512 176.001zM336 128c0 26.51 21.49 48 48 48s48-21.49 48-48-21.49-48-48-48-48 21.49-48 48z" fill="#0d6efd"/>
  </g>
  
  <!-- 票据符号 -->
  <g transform="translate(110, 70)">
    <rect x="0" y="0" width="20" height="15" rx="2" ry="2" fill="#0d6efd" opacity="0.7"/>
    <line x1="3" y1="4" x2="17" y2="4" stroke="white" stroke-width="1"/>
    <line x1="3" y1="8" x2="17" y2="8" stroke="white" stroke-width="1"/>
    <line x1="3" y1="12" x2="12" y2="12" stroke="white" stroke-width="1"/>
  </g>
</svg> 